<svg xmlns="http://www.w3.org/2000/svg" width="38.731" height="32.328" viewBox="0 0 38.731 32.328">
  <g id="Group_3648" data-name="Group 3648" transform="translate(0 0)">
    <path id="Path_1892" data-name="Path 1892" d="M1035.415,1381.125c.077-.635.142-1.272.232-1.905a23.938,23.938,0,0,1,4.854-11.784,12.733,12.733,0,0,1,5.136-4.046,7.776,7.776,0,0,1,4.026-.563,1.006,1.006,0,0,1,.845,1.247c-.295,1.117-.62,2.227-.935,3.339a.967.967,0,0,1-.77.751c-2.361.416-3.846,1.966-5.032,3.887a21.87,21.87,0,0,0-2.3,5.517c-.006.021.007.047.012.075.613-.162,1.217-.365,1.838-.477a9.4,9.4,0,0,1,10.291,5.265,9.04,9.04,0,0,1-4.828,12,9.409,9.409,0,0,1-10.246-2.229,10.646,10.646,0,0,1-2.577-5.01c-.222-.965-.321-1.957-.477-2.936-.017-.111-.047-.219-.072-.329Z" transform="translate(-1035.415 -1362.763)" fill="#5697eb"/>
    <path id="Path_1893" data-name="Path 1893" d="M1080.278,1377.637c.748-.178,1.458-.394,2.184-.51a9.262,9.262,0,0,1,5.887.989,8.782,8.782,0,0,1,4.631,5.984,8.97,8.97,0,0,1-6.9,10.788,9.122,9.122,0,0,1-8.7-2.675,10.622,10.622,0,0,1-2.618-5.07,19.917,19.917,0,0,1-.478-6.072,25.409,25.409,0,0,1,2.9-10.378,16.736,16.736,0,0,1,5.406-6.3,8.462,8.462,0,0,1,5.77-1.573,1.014,1.014,0,0,1,.959,1.288c-.292,1.118-.619,2.226-.938,3.337a.942.942,0,0,1-.753.719,7.376,7.376,0,0,0-5,3.819A21.863,21.863,0,0,0,1080.278,1377.637Z" transform="translate(-1054.487 -1362.768)" fill="#5697eb"/>
  </g>
</svg>
