<svg xmlns="http://www.w3.org/2000/svg" width="63.416" height="63.416" viewBox="0 0 63.416 63.416">
  <g id="Path_2001" data-name="Path 2001" transform="translate(4 4)" fill="#fff">
    <path d="M 27.70788383483887 57.41577529907227 C 23.69822311401367 57.41577529907227 19.80744361877441 56.63002395629883 16.14362335205078 55.08035278320312 C 12.60579395294189 53.583984375 9.428914070129395 51.44220352172852 6.701243877410889 48.71453475952148 C 3.97356390953064 45.98685455322266 1.831793785095215 42.80998229980469 0.3354138433933258 39.27214431762695 C -1.214246153831482 35.60832214355469 -1.999996185302734 31.71754455566406 -1.999996185302734 27.70788383483887 C -1.999996185302734 23.69822311401367 -1.214246153831482 19.80744361877441 0.3354138433933258 16.14362335205078 C 1.831793785095215 12.60579395294189 3.97356390953064 9.428914070129395 6.701243877410889 6.701243877410889 C 9.428914070129395 3.97356390953064 12.60579395294189 1.831793785095215 16.14362335205078 0.3354138433933258 C 19.80744361877441 -1.214246153831482 23.69822311401367 -1.999996185302734 27.70788383483887 -1.999996185302734 C 31.71754455566406 -1.999996185302734 35.60832214355469 -1.214246153831482 39.27214431762695 0.3354138433933258 C 42.80998229980469 1.831793785095215 45.98685455322266 3.97356390953064 48.71453475952148 6.701243877410889 C 51.44220352172852 9.428914070129395 53.583984375 12.60579395294189 55.08035278320312 16.14362335205078 C 56.63002395629883 19.80744361877441 57.41577529907227 23.69822311401367 57.41577529907227 27.70788383483887 C 57.41577529907227 31.71754455566406 56.63002395629883 35.60832214355469 55.08035278320312 39.27214431762695 C 53.583984375 42.80998229980469 51.44220352172852 45.98685455322266 48.71453475952148 48.71453475952148 C 45.98685455322266 51.44220352172852 42.80998229980469 53.583984375 39.27214431762695 55.08035278320312 C 35.60832214355469 56.63002395629883 31.71754455566406 57.41577529907227 27.70788383483887 57.41577529907227 Z" stroke="none"/>
    <path d="M 27.70788383483887 -3.814697265625e-06 C 12.40523910522461 -3.814697265625e-06 -3.814697265625e-06 12.40523910522461 -3.814697265625e-06 27.70788383483887 C -3.814697265625e-06 43.01052856445312 12.40523910522461 55.4157600402832 27.70788383483887 55.4157600402832 C 43.01052856445312 55.4157600402832 55.4157600402832 43.01052856445312 55.4157600402832 27.70788383483887 C 55.4157600402832 12.40523910522461 43.01052856445312 -3.814697265625e-06 27.70788383483887 -3.814697265625e-06 M 27.70788383483887 -4.000003814697266 C 31.98666191101074 -4.000003814697266 36.13957214355469 -3.161106109619141 40.05125045776367 -1.506595611572266 C 43.82748413085938 0.090606689453125 47.21804046630859 2.376316070556641 50.12873840332031 5.287017822265625 C 53.03945159912109 8.197727203369141 55.32514953613281 11.58828353881836 56.92236328125 15.36451721191406 C 58.57686233520508 19.27619552612305 59.4157600402832 23.42910575866699 59.4157600402832 27.70788383483887 C 59.4157600402832 31.98666191101074 58.57686233520508 36.13957214355469 56.92236328125 40.05125045776367 C 55.32514953613281 43.82748413085938 53.03945159912109 47.21804046630859 50.12873840332031 50.12873840332031 C 47.21804046630859 53.03945159912109 43.82748413085938 55.32514953613281 40.05125045776367 56.92236328125 C 36.13957214355469 58.57686233520508 31.98666191101074 59.4157600402832 27.70788383483887 59.4157600402832 C 23.42910575866699 59.4157600402832 19.27619552612305 58.57686233520508 15.36451721191406 56.92236328125 C 11.58828353881836 55.32514953613281 8.197727203369141 53.03945159912109 5.287017822265625 50.12873840332031 C 2.376316070556641 47.21804046630859 0.090606689453125 43.82748413085938 -1.506595611572266 40.05125045776367 C -3.161106109619141 36.13957214355469 -4.000003814697266 31.98666191101074 -4.000003814697266 27.70788383483887 C -4.000003814697266 23.42910575866699 -3.161106109619141 19.27619552612305 -1.506603240966797 15.36451721191406 C 0.090606689453125 11.58828353881836 2.376316070556641 8.197727203369141 5.287017822265625 5.287017822265625 C 8.197727203369141 2.376316070556641 11.58828353881836 0.090606689453125 15.36451721191406 -1.506603240966797 C 19.27619552612305 -3.161106109619141 23.42910575866699 -4.000003814697266 27.70788383483887 -4.000003814697266 Z" stroke="none" fill="#01234f"/>
  </g>
</svg>
