<svg xmlns="http://www.w3.org/2000/svg" width="504.748" height="356.87" viewBox="0 0 504.748 356.87">
  <g id="Group_3809" data-name="Group 3809" transform="translate(-160.876 -6068)">
    <path id="Path_2003" data-name="Path 2003" d="M14,0H490.748a14,14,0,0,1,14,14V295.215a14,14,0,0,1-14,14H14a14,14,0,0,1-14-14V14A14,14,0,0,1,14,0Z" transform="translate(160.876 6115.654)" fill="#fff"/>
    <g id="Path_1894" data-name="Path 1894" transform="translate(194.525 6072)" fill="#fff">
      <path d="M 43.65391540527344 89.30783081054688 C 37.49155426025391 89.30783081054688 31.51246452331543 88.1004638671875 25.88274002075195 85.71929168701172 C 20.44606590270996 83.41977691650391 15.56385326385498 80.12824249267578 11.37172794342041 75.93610382080078 C 7.179590225219727 71.74398040771484 3.888052940368652 66.86176300048828 1.588540434837341 61.42509078979492 C -0.7926346063613892 55.79536437988281 -1.999997138977051 49.81627655029297 -1.999997138977051 43.65391540527344 C -1.999997138977051 37.49155426025391 -0.7926346063613892 31.51246452331543 1.588540434837341 25.88274002075195 C 3.888052940368652 20.44606590270996 7.179590225219727 15.56385326385498 11.37172794342041 11.37172794342041 C 15.56385326385498 7.179590225219727 20.44606590270996 3.888052940368652 25.88274002075195 1.588540434837341 C 31.51246452331543 -0.7926346063613892 37.49155426025391 -1.999997138977051 43.65391540527344 -1.999997138977051 C 49.81627655029297 -1.999997138977051 55.79536437988281 -0.7926346063613892 61.42509078979492 1.588540434837341 C 66.86176300048828 3.888052940368652 71.74398040771484 7.179590225219727 75.93610382080078 11.37172794342041 C 80.12824249267578 15.56385326385498 83.41977691650391 20.44606590270996 85.71929168701172 25.88274002075195 C 88.1004638671875 31.51246452331543 89.30783081054688 37.49155426025391 89.30783081054688 43.65391540527344 C 89.30783081054688 49.81627655029297 88.1004638671875 55.79536437988281 85.71929168701172 61.42509078979492 C 83.41977691650391 66.86176300048828 80.12824249267578 71.74398040771484 75.93610382080078 75.93610382080078 C 71.74398040771484 80.12824249267578 66.86176300048828 83.41977691650391 61.42509078979492 85.71929168701172 C 55.79536437988281 88.1004638671875 49.81627655029297 89.30783081054688 43.65391540527344 89.30783081054688 Z" stroke="none"/>
      <path d="M 43.65391540527344 -7.62939453125e-06 C 19.54453277587891 -7.62939453125e-06 -7.62939453125e-06 19.54453277587891 -7.62939453125e-06 43.65391540527344 C -7.62939453125e-06 67.76329803466797 19.54453277587891 87.30782318115234 43.65391540527344 87.30782318115234 C 67.76329803466797 87.30782318115234 87.30782318115234 67.76329803466797 87.30782318115234 43.65391540527344 C 87.30782318115234 19.54453277587891 67.76329803466797 -7.62939453125e-06 43.65391540527344 -7.62939453125e-06 M 43.65391540527344 -4.000007629394531 C 50.08539199829102 -4.000007629394531 56.32660675048828 -2.739501953125 62.20419311523438 -0.2534866333007812 C 67.8792724609375 2.146865844726562 72.97515869140625 5.582344055175781 77.35031127929688 9.957511901855469 C 81.72547149658203 14.33267211914062 85.16094970703125 19.42855834960938 87.56130218505859 25.1036376953125 C 90.04731750488281 30.98122406005859 91.30782318115234 37.22243881225586 91.30782318115234 43.65391540527344 C 91.30782318115234 50.08539199829102 90.04731750488281 56.32660675048828 87.56130218505859 62.20419311523438 C 85.16094970703125 67.8792724609375 81.72547149658203 72.97515869140625 77.35031127929688 77.35031127929688 C 72.97515869140625 81.72547149658203 67.8792724609375 85.16094970703125 62.20419311523438 87.56130218505859 C 56.32660675048828 90.04731750488281 50.08539199829102 91.30782318115234 43.65391540527344 91.30782318115234 C 37.22243881225586 91.30782318115234 30.98122406005859 90.04731750488281 25.1036376953125 87.56130218505859 C 19.42855834960938 85.16094970703125 14.33267211914062 81.72547149658203 9.957511901855469 77.35031127929688 C 5.582344055175781 72.97515869140625 2.146865844726562 67.8792724609375 -0.2534866333007812 62.20419311523438 C -2.739501953125 56.32660675048828 -4.000007629394531 50.08539199829102 -4.000007629394531 43.65391540527344 C -4.000007629394531 37.22243881225586 -2.739501953125 30.98122406005859 -0.2534866333007812 25.1036376953125 C 2.146865844726562 19.42855834960938 5.582344055175781 14.33267211914062 9.957496643066406 9.957496643066406 C 14.33267211914062 5.582344055175781 19.42855834960938 2.146865844726562 25.1036376953125 -0.2534866333007812 C 30.98122406005859 -2.739501953125 37.22243881225586 -4.000007629394531 43.65391540527344 -4.000007629394531 Z" stroke="none" fill="#01234f"/>
    </g>
  </g>
</svg>
